<svg width="48" height="48" viewBox="0 0 48 48" fill="none" xmlns="http://www.w3.org/2000/svg" role="img" aria-label="Seal">
  <ellipse cx="24" cy="40" rx="20" ry="4" fill="#14b8a6" fill-opacity="0.25"/>
  <path d="M8 28c2-10 8-16 16-16s14 6 16 16c-2 6-8 10-16 10S10 34 8 28z" fill="#0f766e"/>
  <ellipse cx="24" cy="24" rx="11" ry="10" fill="#115e59"/>
  <circle cx="30" cy="20" r="5.5" fill="#115e59"/>
  <circle cx="31.5" cy="19" r="1.2" fill="#042f2e"/>
  <path d="M34 21.5c2 1 3.5 2.5 4 4" stroke="#134e4a" stroke-width="0.8" stroke-linecap="round" stroke-opacity="0.5"/>
  <path d="M12 26c-2 2-3 4-2.5 6" stroke="#134e4a" stroke-width="1.2" stroke-linecap="round" stroke-opacity="0.6"/>
  <path d="M36 26c2 2 3 4 2.5 6" stroke="#134e4a" stroke-width="1.2" stroke-linecap="round" stroke-opacity="0.6"/>
  <path d="M18 32c1.5 1 3 1.5 6 1.5s4.5-.5 6-1.5" stroke="#b45309" stroke-width="1" stroke-linecap="round" stroke-opacity="0.5"/>
</svg>
